<?xml version="1.0" encoding="UTF-8" standalone="no"?>
<!DOCTYPE svg PUBLIC "-//W3C//DTD SVG 1.1//EN"
 "http://www.w3.org/Graphics/SVG/1.1/DTD/svg11.dtd">
<!-- Generated by graphviz version 2.43.0 (0)
 -->
<!-- Title: NSBarrier_4Branches Pages: 1 -->
<svg width="788pt" height="1210pt"
 viewBox="0.00 0.00 788.13 1209.52" xmlns="http://www.w3.org/2000/svg" xmlns:xlink="http://www.w3.org/1999/xlink">
<g id="graph0" class="graph" transform="scale(1 1) rotate(0) translate(4 1205.52)">
<title>NSBarrier_4Branches</title>
<polygon fill="white" stroke="transparent" points="-4,4 -4,-1205.52 784.13,-1205.52 784.13,4 -4,4"/>
<!-- L0 -->
<g id="node1" class="node">
<title>L0</title>
<path fill="#bbdefb" stroke="black" d="M366.13,-987.52C366.13,-987.52 204.13,-987.52 204.13,-987.52 198.13,-987.52 192.13,-981.52 192.13,-975.52 192.13,-975.52 192.13,-929.52 192.13,-929.52 192.13,-923.52 198.13,-917.52 204.13,-917.52 204.13,-917.52 366.13,-917.52 366.13,-917.52 372.13,-917.52 378.13,-923.52 378.13,-929.52 378.13,-929.52 378.13,-975.52 378.13,-975.52 378.13,-981.52 372.13,-987.52 366.13,-987.52"/>
<text text-anchor="middle" x="285.13" y="-967.72" font-family="Helvetica,sans-Serif" font-weight="bold" font-size="11.00">Layer 0</text>
<text text-anchor="middle" x="285.13" y="-955.72" font-family="Helvetica,sans-Serif" font-weight="bold" font-size="11.00">Abstract Barrier Core</text>
<text text-anchor="middle" x="285.13" y="-943.72" font-family="Helvetica,sans-Serif" font-weight="bold" font-size="11.00">k⁴ barrier, finite source</text>
<text text-anchor="middle" x="285.13" y="-931.72" font-family="Helvetica,sans-Serif" font-weight="bold" font-size="11.00">5 files</text>
</g>
<!-- L1_2 -->
<g id="node5" class="node">
<title>L1_2</title>
<path fill="#c8e6c9" stroke="black" d="M439.13,-799.52C439.13,-799.52 325.13,-799.52 325.13,-799.52 319.13,-799.52 313.13,-793.52 313.13,-787.52 313.13,-787.52 313.13,-741.52 313.13,-741.52 313.13,-735.52 319.13,-729.52 325.13,-729.52 325.13,-729.52 439.13,-729.52 439.13,-729.52 445.13,-729.52 451.13,-735.52 451.13,-741.52 451.13,-741.52 451.13,-787.52 451.13,-787.52 451.13,-793.52 445.13,-799.52 439.13,-799.52"/>
<text text-anchor="middle" x="382.13" y="-779.72" font-family="Helvetica,sans-Serif" font-weight="bold" font-size="11.00">Layer 1&#45;2</text>
<text text-anchor="middle" x="382.13" y="-767.72" font-family="Helvetica,sans-Serif" font-weight="bold" font-size="11.00">Integrated hinc</text>
<text text-anchor="middle" x="382.13" y="-755.72" font-family="Helvetica,sans-Serif" font-weight="bold" font-size="11.00">Galerkin ODE</text>
<text text-anchor="middle" x="382.13" y="-743.72" font-family="Helvetica,sans-Serif" font-weight="bold" font-size="11.00">12 files</text>
</g>
<!-- L0&#45;&gt;L1_2 -->
<g id="edge1" class="edge">
<title>L0&#45;&gt;L1_2</title>
<path fill="none" stroke="#555555" stroke-width="1.5" d="M302.92,-917.4C319.14,-886.3 343.15,-840.27 360.47,-807.04"/>
<polygon fill="#555555" stroke="#555555" stroke-width="1.5" points="363.07,-808.12 364.29,-799.73 358.1,-805.53 363.07,-808.12"/>
</g>
<!-- L13 -->
<g id="node8" class="node">
<title>L13</title>
<path fill="#ef9a9a" stroke="black" stroke-width="2" d="M407.63,-504.52C407.63,-504.52 308.63,-504.52 308.63,-504.52 302.63,-504.52 296.63,-498.52 296.63,-492.52 296.63,-492.52 296.63,-434.52 296.63,-434.52 296.63,-428.52 302.63,-422.52 308.63,-422.52 308.63,-422.52 407.63,-422.52 407.63,-422.52 413.63,-422.52 419.63,-428.52 419.63,-434.52 419.63,-434.52 419.63,-492.52 419.63,-492.52 419.63,-498.52 413.63,-504.52 407.63,-504.52"/>
<text text-anchor="middle" x="358.13" y="-484.72" font-family="Helvetica,sans-Serif" font-weight="bold" font-size="11.00">Layer 13</text>
<text text-anchor="middle" x="358.13" y="-472.72" font-family="Helvetica,sans-Serif" font-weight="bold" font-size="11.00">Bootstrap</text>
<text text-anchor="middle" x="358.13" y="-460.72" font-family="Helvetica,sans-Serif" font-weight="bold" font-size="11.00">Continuation</text>
<text text-anchor="middle" x="358.13" y="-448.72" font-family="Helvetica,sans-Serif" font-weight="bold" font-size="11.00">No&#45;Blowup</text>
<text text-anchor="middle" x="358.13" y="-436.72" font-family="Helvetica,sans-Serif" font-weight="bold" font-size="11.00">3 files</text>
</g>
<!-- L0&#45;&gt;L13 -->
<g id="edge2" class="edge">
<title>L0&#45;&gt;L13</title>
<path fill="none" stroke="#555555" stroke-width="1.5" d="M286.83,-917.15C289.29,-873.4 294.61,-795.56 304.13,-729.52 315.15,-653.05 334.32,-565.4 346.6,-512.53"/>
<polygon fill="#555555" stroke="#555555" stroke-width="1.5" points="349.34,-513.1 348.44,-504.67 343.89,-511.83 349.34,-513.1"/>
</g>
<!-- L14_15 -->
<g id="node9" class="node">
<title>L14_15</title>
<path fill="#e1bee7" stroke="black" d="M442.63,-379.52C442.63,-379.52 273.63,-379.52 273.63,-379.52 267.63,-379.52 261.63,-373.52 261.63,-367.52 261.63,-367.52 261.63,-321.52 261.63,-321.52 261.63,-315.52 267.63,-309.52 273.63,-309.52 273.63,-309.52 442.63,-309.52 442.63,-309.52 448.63,-309.52 454.63,-315.52 454.63,-321.52 454.63,-321.52 454.63,-367.52 454.63,-367.52 454.63,-373.52 448.63,-379.52 442.63,-379.52"/>
<text text-anchor="middle" x="358.13" y="-359.72" font-family="Helvetica,sans-Serif" font-weight="bold" font-size="11.00">Layer 14&#45;15</text>
<text text-anchor="middle" x="358.13" y="-347.72" font-family="Helvetica,sans-Serif" font-weight="bold" font-size="11.00">Uniform &amp; Compactness</text>
<text text-anchor="middle" x="358.13" y="-335.72" font-family="Helvetica,sans-Serif" font-weight="bold" font-size="11.00">Arzelà&#45;Ascoli</text>
<text text-anchor="middle" x="358.13" y="-323.72" font-family="Helvetica,sans-Serif" font-weight="bold" font-size="11.00">12 files</text>
</g>
<!-- L0&#45;&gt;L14_15 -->
<g id="edge3" class="edge">
<title>L0&#45;&gt;L14_15</title>
<path fill="none" stroke="#555555" stroke-width="1.5" d="M273.83,-917.32C262.63,-880.33 247.13,-819.41 247.13,-765.52 247.13,-765.52 247.13,-765.52 247.13,-462.52 247.13,-430.91 268.72,-404.42 292.86,-384.69"/>
<polygon fill="#555555" stroke="#555555" stroke-width="1.5" points="294.82,-386.71 299.38,-379.56 291.36,-382.3 294.82,-386.71"/>
</g>
<!-- L3 -->
<g id="node2" class="node">
<title>L3</title>
<path fill="#ffe0b2" stroke="black" d="M524.63,-1201.52C524.63,-1201.52 409.63,-1201.52 409.63,-1201.52 403.63,-1201.52 397.63,-1195.52 397.63,-1189.52 397.63,-1189.52 397.63,-1143.52 397.63,-1143.52 397.63,-1137.52 403.63,-1131.52 409.63,-1131.52 409.63,-1131.52 524.63,-1131.52 524.63,-1131.52 530.63,-1131.52 536.63,-1137.52 536.63,-1143.52 536.63,-1143.52 536.63,-1189.52 536.63,-1189.52 536.63,-1195.52 530.63,-1201.52 524.63,-1201.52"/>
<text text-anchor="middle" x="467.13" y="-1181.72" font-family="Helvetica,sans-Serif" font-weight="bold" font-size="11.00">Layer 3</text>
<text text-anchor="middle" x="467.13" y="-1169.72" font-family="Helvetica,sans-Serif" font-weight="bold" font-size="11.00">Triad Geometry</text>
<text text-anchor="middle" x="467.13" y="-1157.72" font-family="Helvetica,sans-Serif" font-weight="bold" font-size="11.00">offset C₀=2</text>
<text text-anchor="middle" x="467.13" y="-1145.72" font-family="Helvetica,sans-Serif" font-weight="bold" font-size="11.00">6 files</text>
</g>
<!-- L4_5 -->
<g id="node3" class="node">
<title>L4_5</title>
<path fill="#fff9c4" stroke="black" d="M590.13,-987.52C590.13,-987.52 436.13,-987.52 436.13,-987.52 430.13,-987.52 424.13,-981.52 424.13,-975.52 424.13,-975.52 424.13,-929.52 424.13,-929.52 424.13,-923.52 430.13,-917.52 436.13,-917.52 436.13,-917.52 590.13,-917.52 590.13,-917.52 596.13,-917.52 602.13,-923.52 602.13,-929.52 602.13,-929.52 602.13,-975.52 602.13,-975.52 602.13,-981.52 596.13,-987.52 590.13,-987.52"/>
<text text-anchor="middle" x="513.13" y="-967.72" font-family="Helvetica,sans-Serif" font-weight="bold" font-size="11.00">Layer 4&#45;5</text>
<text text-anchor="middle" x="513.13" y="-955.72" font-family="Helvetica,sans-Serif" font-weight="bold" font-size="11.00">Finite&#45;Band Bernstein</text>
<text text-anchor="middle" x="513.13" y="-943.72" font-family="Helvetica,sans-Serif" font-weight="bold" font-size="11.00">Shell&#45;Block Decomp</text>
<text text-anchor="middle" x="513.13" y="-931.72" font-family="Helvetica,sans-Serif" font-weight="bold" font-size="11.00">20 files</text>
</g>
<!-- L3&#45;&gt;L4_5 -->
<g id="edge4" class="edge">
<title>L3&#45;&gt;L4_5</title>
<path fill="none" stroke="#555555" stroke-width="1.5" d="M481.93,-1131.36C486.44,-1119.84 491.01,-1106.79 494.13,-1094.52 502.43,-1061.84 507.28,-1023.91 510,-995.63"/>
<polygon fill="#555555" stroke="#555555" stroke-width="1.5" points="512.8,-995.78 510.74,-987.55 507.22,-995.26 512.8,-995.78"/>
</g>
<!-- L6_7 -->
<g id="node4" class="node">
<title>L6_7</title>
<path fill="#d1c4e9" stroke="black" d="M473.13,-1094.52C473.13,-1094.52 371.13,-1094.52 371.13,-1094.52 365.13,-1094.52 359.13,-1088.52 359.13,-1082.52 359.13,-1082.52 359.13,-1036.52 359.13,-1036.52 359.13,-1030.52 365.13,-1024.52 371.13,-1024.52 371.13,-1024.52 473.13,-1024.52 473.13,-1024.52 479.13,-1024.52 485.13,-1030.52 485.13,-1036.52 485.13,-1036.52 485.13,-1082.52 485.13,-1082.52 485.13,-1088.52 479.13,-1094.52 473.13,-1094.52"/>
<text text-anchor="middle" x="422.13" y="-1074.72" font-family="Helvetica,sans-Serif" font-weight="bold" font-size="11.00">Layer 6&#45;7</text>
<text text-anchor="middle" x="422.13" y="-1062.72" font-family="Helvetica,sans-Serif" font-weight="bold" font-size="11.00">Torus L²/L∞</text>
<text text-anchor="middle" x="422.13" y="-1050.72" font-family="Helvetica,sans-Serif" font-weight="bold" font-size="11.00">Strain Tensor</text>
<text text-anchor="middle" x="422.13" y="-1038.72" font-family="Helvetica,sans-Serif" font-weight="bold" font-size="11.00">13 files</text>
</g>
<!-- L3&#45;&gt;L6_7 -->
<g id="edge7" class="edge">
<title>L3&#45;&gt;L6_7</title>
<path fill="none" stroke="#555555" stroke-width="1.5" d="M452.52,-1131.43C448.55,-1122.17 444.21,-1112.03 440.07,-1102.39"/>
<polygon fill="#555555" stroke="#555555" stroke-width="1.5" points="442.54,-1101.05 436.82,-1094.8 437.4,-1103.26 442.54,-1101.05"/>
</g>
<!-- L10 -->
<g id="node6" class="node">
<title>L10</title>
<path fill="#b2dfdb" stroke="black" d="M640.63,-799.52C640.63,-799.52 519.63,-799.52 519.63,-799.52 513.63,-799.52 507.63,-793.52 507.63,-787.52 507.63,-787.52 507.63,-741.52 507.63,-741.52 507.63,-735.52 513.63,-729.52 519.63,-729.52 519.63,-729.52 640.63,-729.52 640.63,-729.52 646.63,-729.52 652.63,-735.52 652.63,-741.52 652.63,-741.52 652.63,-787.52 652.63,-787.52 652.63,-793.52 646.63,-799.52 640.63,-799.52"/>
<text text-anchor="middle" x="580.13" y="-779.72" font-family="Helvetica,sans-Serif" font-weight="bold" font-size="11.00">Layer 10</text>
<text text-anchor="middle" x="580.13" y="-767.72" font-family="Helvetica,sans-Serif" font-weight="bold" font-size="11.00">Named Theorem</text>
<text text-anchor="middle" x="580.13" y="-755.72" font-family="Helvetica,sans-Serif" font-weight="bold" font-size="11.00">Surface</text>
<text text-anchor="middle" x="580.13" y="-743.72" font-family="Helvetica,sans-Serif" font-weight="bold" font-size="11.00">5 files</text>
</g>
<!-- L4_5&#45;&gt;L10 -->
<g id="edge10" class="edge">
<title>L4_5&#45;&gt;L10</title>
<path fill="none" stroke="#555555" stroke-width="1.5" d="M525.42,-917.4C536.57,-886.43 553.06,-840.66 565.02,-807.46"/>
<polygon fill="#555555" stroke="#555555" stroke-width="1.5" points="567.73,-808.21 567.8,-799.73 562.46,-806.31 567.73,-808.21"/>
</g>
<!-- L12 -->
<g id="node7" class="node">
<title>L12</title>
<path fill="#e53935" stroke="black" stroke-width="3" d="M576.63,-611.52C576.63,-611.52 377.63,-611.52 377.63,-611.52 371.63,-611.52 365.63,-605.52 365.63,-599.52 365.63,-599.52 365.63,-553.52 365.63,-553.52 365.63,-547.52 371.63,-541.52 377.63,-541.52 377.63,-541.52 576.63,-541.52 576.63,-541.52 582.63,-541.52 588.63,-547.52 588.63,-553.52 588.63,-553.52 588.63,-599.52 588.63,-599.52 588.63,-605.52 582.63,-611.52 576.63,-611.52"/>
<text text-anchor="middle" x="477.13" y="-591.72" font-family="Helvetica,sans-Serif" font-weight="bold" font-size="11.00" fill="white">Layer 12</text>
<text text-anchor="middle" x="477.13" y="-579.72" font-family="Helvetica,sans-Serif" font-weight="bold" font-size="11.00" fill="white">★ Master Theorems ★</text>
<text text-anchor="middle" x="477.13" y="-567.72" font-family="Helvetica,sans-Serif" font-weight="bold" font-size="11.00" fill="white">Closure + Realization + Main</text>
<text text-anchor="middle" x="477.13" y="-555.72" font-family="Helvetica,sans-Serif" font-weight="bold" font-size="11.00" fill="white">3 files</text>
</g>
<!-- L4_5&#45;&gt;L12 -->
<g id="edge5" class="edge">
<title>L4_5&#45;&gt;L12</title>
<path fill="none" stroke="#e53935" stroke-width="1.5" d="M509.84,-917.34C503.24,-848.84 488.43,-694.93 481.22,-620.05"/>
<polygon fill="#e53935" stroke="#e53935" stroke-width="1.5" points="483.98,-619.45 480.42,-611.76 478.4,-619.99 483.98,-619.45"/>
</g>
<!-- R3_Realization -->
<g id="node11" class="node">
<title>R3_Realization</title>
<path fill="#f48fb1" stroke="black" stroke-width="2" d="M768.13,-711.52C768.13,-711.52 568.13,-711.52 568.13,-711.52 562.13,-711.52 556.13,-705.52 556.13,-699.52 556.13,-699.52 556.13,-641.52 556.13,-641.52 556.13,-635.52 562.13,-629.52 568.13,-629.52 568.13,-629.52 768.13,-629.52 768.13,-629.52 774.13,-629.52 780.13,-635.52 780.13,-641.52 780.13,-641.52 780.13,-699.52 780.13,-699.52 780.13,-705.52 774.13,-711.52 768.13,-711.52"/>
<text text-anchor="middle" x="668.13" y="-691.72" font-family="Helvetica,sans-Serif" font-weight="bold" font-size="11.00">R³ Actual Realization</text>
<text text-anchor="middle" x="668.13" y="-679.72" font-family="Helvetica,sans-Serif" font-weight="bold" font-size="11.00">E1&#45;E6 Complete</text>
<text text-anchor="middle" x="668.13" y="-667.72" font-family="Helvetica,sans-Serif" font-weight="bold" font-size="11.00">Littlewood&#45;Paley + Bernstein</text>
<text text-anchor="middle" x="668.13" y="-655.72" font-family="Helvetica,sans-Serif" font-weight="bold" font-size="11.00">actual PDE interface</text>
<text text-anchor="middle" x="668.13" y="-643.72" font-family="Helvetica,sans-Serif" font-weight="bold" font-size="11.00">15 files</text>
</g>
<!-- L4_5&#45;&gt;R3_Realization -->
<g id="edge16" class="edge">
<title>L4_5&#45;&gt;R3_Realization</title>
<path fill="none" stroke="#555555" stroke-width="1.5" stroke-dasharray="5,2" d="M561.88,-917.42C596.68,-890 640.94,-848.13 662.13,-799.52 672.95,-774.69 674.84,-744.53 673.84,-719.73"/>
<polygon fill="#555555" stroke="#555555" stroke-width="1.5" points="676.62,-719.37 673.4,-711.53 671.03,-719.67 676.62,-719.37"/>
<text text-anchor="middle" x="680.13" y="-854.82" font-family="Times,serif" font-size="14.00"> &#160;mirror</text>
</g>
<!-- L6_7&#45;&gt;L4_5 -->
<g id="edge6" class="edge">
<title>L6_7&#45;&gt;L4_5</title>
<path fill="none" stroke="#555555" stroke-width="1.5" d="M451.67,-1024.43C460.1,-1014.71 469.36,-1004.03 478.07,-993.97"/>
<polygon fill="#555555" stroke="#555555" stroke-width="1.5" points="480.3,-995.68 483.42,-987.8 476.06,-992.01 480.3,-995.68"/>
</g>
<!-- T3_PDE -->
<g id="node10" class="node">
<title>T3_PDE</title>
<path fill="#f8bbd0" stroke="black" stroke-width="2" d="M211.63,-899.52C211.63,-899.52 82.63,-899.52 82.63,-899.52 76.63,-899.52 70.63,-893.52 70.63,-887.52 70.63,-887.52 70.63,-829.52 70.63,-829.52 70.63,-823.52 76.63,-817.52 82.63,-817.52 82.63,-817.52 211.63,-817.52 211.63,-817.52 217.63,-817.52 223.63,-823.52 223.63,-829.52 223.63,-829.52 223.63,-887.52 223.63,-887.52 223.63,-893.52 217.63,-899.52 211.63,-899.52"/>
<text text-anchor="middle" x="147.13" y="-879.72" font-family="Helvetica,sans-Serif" font-weight="bold" font-size="11.00">T³ PDE Interface</text>
<text text-anchor="middle" x="147.13" y="-867.72" font-family="Helvetica,sans-Serif" font-weight="bold" font-size="11.00">True NS Fields</text>
<text text-anchor="middle" x="147.13" y="-855.72" font-family="Helvetica,sans-Serif" font-weight="bold" font-size="11.00">[PDE: ω₀ ∈ L²(T³)]</text>
<text text-anchor="middle" x="147.13" y="-843.72" font-family="Helvetica,sans-Serif" font-weight="bold" font-size="11.00">irreducible</text>
<text text-anchor="middle" x="147.13" y="-831.72" font-family="Helvetica,sans-Serif" font-weight="bold" font-size="11.00">6 files</text>
</g>
<!-- L6_7&#45;&gt;T3_PDE -->
<g id="edge12" class="edge">
<title>L6_7&#45;&gt;T3_PDE</title>
<path fill="none" stroke="#555555" stroke-width="1.5" d="M358.97,-1056.12C305.16,-1050.68 229.39,-1034.46 183.13,-987.52 162.42,-966.51 153.42,-934.58 149.59,-907.87"/>
<polygon fill="#555555" stroke="#555555" stroke-width="1.5" points="152.35,-907.35 148.56,-899.77 146.79,-908.06 152.35,-907.35"/>
</g>
<!-- L1_2&#45;&gt;L12 -->
<g id="edge8" class="edge">
<title>L1_2&#45;&gt;L12</title>
<path fill="none" stroke="#555555" stroke-width="1.5" d="M399.55,-729.4C415.44,-698.3 438.95,-652.27 455.92,-619.04"/>
<polygon fill="#555555" stroke="#555555" stroke-width="1.5" points="458.51,-620.13 459.65,-611.73 453.52,-617.58 458.51,-620.13"/>
</g>
<!-- L10&#45;&gt;L12 -->
<g id="edge9" class="edge">
<title>L10&#45;&gt;L12</title>
<path fill="none" stroke="#555555" stroke-width="1.5" d="M557.88,-729.37C554.2,-723.47 550.5,-717.35 547.13,-711.52 529.5,-680.98 511.09,-645.58 497.58,-618.84"/>
<polygon fill="#555555" stroke="#555555" stroke-width="1.5" points="500,-617.42 493.9,-611.54 495,-619.94 500,-617.42"/>
</g>
<!-- L12&#45;&gt;L13 -->
<g id="edge19" class="edge">
<title>L12&#45;&gt;L13</title>
<path fill="none" stroke="#e53935" stroke-width="1.5" d="M440.45,-541.31C429.97,-531.53 418.36,-520.71 407.26,-510.35"/>
<polygon fill="#e53935" stroke="#e53935" stroke-width="1.5" points="408.91,-508.06 401.15,-504.65 405.09,-512.16 408.91,-508.06"/>
</g>
<!-- L13&#45;&gt;L14_15 -->
<g id="edge20" class="edge">
<title>L13&#45;&gt;L14_15</title>
<path fill="none" stroke="#555555" stroke-width="1.5" d="M358.13,-422.26C358.13,-411.09 358.13,-398.93 358.13,-387.66"/>
<polygon fill="#555555" stroke="#555555" stroke-width="1.5" points="360.93,-387.63 358.13,-379.63 355.33,-387.63 360.93,-387.63"/>
</g>
<!-- BranchD -->
<g id="node15" class="node">
<title>BranchD</title>
<path fill="#ffe0b2" stroke="black" stroke-width="2" d="M231.13,-385.52C231.13,-385.52 33.13,-385.52 33.13,-385.52 27.13,-385.52 21.13,-379.52 21.13,-373.52 21.13,-373.52 21.13,-315.52 21.13,-315.52 21.13,-309.52 27.13,-303.52 33.13,-303.52 33.13,-303.52 231.13,-303.52 231.13,-303.52 237.13,-303.52 243.13,-309.52 243.13,-315.52 243.13,-315.52 243.13,-373.52 243.13,-373.52 243.13,-379.52 237.13,-385.52 231.13,-385.52"/>
<text text-anchor="middle" x="132.13" y="-365.72" font-family="Helvetica,sans-Serif" font-weight="bold" font-size="11.00">T³(D) Branch</text>
<text text-anchor="middle" x="132.13" y="-353.72" font-family="Helvetica,sans-Serif" font-weight="bold" font-size="11.00">Breakdown Counterexample</text>
<text text-anchor="middle" x="132.13" y="-341.72" font-family="Helvetica,sans-Serif" font-weight="bold" font-size="11.00">exists_torus</text>
<text text-anchor="middle" x="132.13" y="-329.72" font-family="Helvetica,sans-Serif" font-weight="bold" font-size="11.00">_breakdown_counterexample</text>
<text text-anchor="middle" x="132.13" y="-317.72" font-family="Helvetica,sans-Serif" font-weight="bold" font-size="11.00">5 files</text>
</g>
<!-- L13&#45;&gt;BranchD -->
<g id="edge23" class="edge">
<title>L13&#45;&gt;BranchD</title>
<path fill="none" stroke="#000000" stroke-width="1.5" stroke-dasharray="1,5" d="M296.37,-430.55C271.88,-417.87 243.32,-403.08 216.94,-389.43"/>
<polygon fill="#000000" stroke="#000000" stroke-width="1.5" points="217.96,-386.8 209.57,-385.61 215.39,-391.78 217.96,-386.8"/>
</g>
<!-- BranchC -->
<g id="node17" class="node">
<title>BranchC</title>
<path fill="#ffe0b2" stroke="black" stroke-width="2" d="M717.13,-385.52C717.13,-385.52 523.13,-385.52 523.13,-385.52 517.13,-385.52 511.13,-379.52 511.13,-373.52 511.13,-373.52 511.13,-315.52 511.13,-315.52 511.13,-309.52 517.13,-303.52 523.13,-303.52 523.13,-303.52 717.13,-303.52 717.13,-303.52 723.13,-303.52 729.13,-309.52 729.13,-315.52 729.13,-315.52 729.13,-373.52 729.13,-373.52 729.13,-379.52 723.13,-385.52 717.13,-385.52"/>
<text text-anchor="middle" x="620.13" y="-365.72" font-family="Helvetica,sans-Serif" font-weight="bold" font-size="11.00">R³(C) Branch</text>
<text text-anchor="middle" x="620.13" y="-353.72" font-family="Helvetica,sans-Serif" font-weight="bold" font-size="11.00">Breakdown Counterexample</text>
<text text-anchor="middle" x="620.13" y="-341.72" font-family="Helvetica,sans-Serif" font-weight="bold" font-size="11.00">exists_breakdown</text>
<text text-anchor="middle" x="620.13" y="-329.72" font-family="Helvetica,sans-Serif" font-weight="bold" font-size="11.00">_counterexample_R3</text>
<text text-anchor="middle" x="620.13" y="-317.72" font-family="Helvetica,sans-Serif" font-weight="bold" font-size="11.00">7 files</text>
</g>
<!-- L13&#45;&gt;BranchC -->
<g id="edge24" class="edge">
<title>L13&#45;&gt;BranchC</title>
<path fill="none" stroke="#000000" stroke-width="1.5" stroke-dasharray="1,5" d="M419.89,-434.94C450.68,-421.19 488.63,-404.24 523.18,-388.81"/>
<polygon fill="#000000" stroke="#000000" stroke-width="1.5" points="524.34,-391.36 530.5,-385.54 522.06,-386.25 524.34,-391.36"/>
</g>
<!-- BranchB -->
<g id="node14" class="node">
<title>BranchB</title>
<path fill="#ffcdd2" stroke="black" stroke-width="2" d="M189.63,-266.52C189.63,-266.52 12.63,-266.52 12.63,-266.52 6.63,-266.52 0.63,-260.52 0.63,-254.52 0.63,-254.52 0.63,-196.52 0.63,-196.52 0.63,-190.52 6.63,-184.52 12.63,-184.52 12.63,-184.52 189.63,-184.52 189.63,-184.52 195.63,-184.52 201.63,-190.52 201.63,-196.52 201.63,-196.52 201.63,-254.52 201.63,-254.52 201.63,-260.52 195.63,-266.52 189.63,-266.52"/>
<text text-anchor="middle" x="101.13" y="-246.72" font-family="Helvetica,sans-Serif" font-weight="bold" font-size="11.00">T³(B) Branch</text>
<text text-anchor="middle" x="101.13" y="-234.72" font-family="Helvetica,sans-Serif" font-weight="bold" font-size="11.00">Global Regularity</text>
<text text-anchor="middle" x="101.13" y="-222.72" font-family="Helvetica,sans-Serif" font-weight="bold" font-size="11.00">torus_global_smooth</text>
<text text-anchor="middle" x="101.13" y="-210.72" font-family="Helvetica,sans-Serif" font-weight="bold" font-size="11.00">_solution_of_smooth_data</text>
<text text-anchor="middle" x="101.13" y="-198.72" font-family="Helvetica,sans-Serif" font-weight="bold" font-size="11.00">5 files</text>
</g>
<!-- L14_15&#45;&gt;BranchB -->
<g id="edge21" class="edge">
<title>L14_15&#45;&gt;BranchB</title>
<path fill="none" stroke="#000000" stroke-width="1.5" stroke-dasharray="1,5" d="M283.1,-309.36C256.17,-297.1 225.43,-283.11 196.98,-270.16"/>
<polygon fill="#000000" stroke="#000000" stroke-width="1.5" points="197.85,-267.48 189.41,-266.71 195.53,-272.57 197.85,-267.48"/>
</g>
<!-- BranchA -->
<g id="node16" class="node">
<title>BranchA</title>
<path fill="#ffcdd2" stroke="black" stroke-width="2" d="M476.63,-266.52C476.63,-266.52 299.63,-266.52 299.63,-266.52 293.63,-266.52 287.63,-260.52 287.63,-254.52 287.63,-254.52 287.63,-196.52 287.63,-196.52 287.63,-190.52 293.63,-184.52 299.63,-184.52 299.63,-184.52 476.63,-184.52 476.63,-184.52 482.63,-184.52 488.63,-190.52 488.63,-196.52 488.63,-196.52 488.63,-254.52 488.63,-254.52 488.63,-260.52 482.63,-266.52 476.63,-266.52"/>
<text text-anchor="middle" x="388.13" y="-246.72" font-family="Helvetica,sans-Serif" font-weight="bold" font-size="11.00">R³(A) Branch</text>
<text text-anchor="middle" x="388.13" y="-234.72" font-family="Helvetica,sans-Serif" font-weight="bold" font-size="11.00">Global Regularity</text>
<text text-anchor="middle" x="388.13" y="-222.72" font-family="Helvetica,sans-Serif" font-weight="bold" font-size="11.00">R3_global_smooth</text>
<text text-anchor="middle" x="388.13" y="-210.72" font-family="Helvetica,sans-Serif" font-weight="bold" font-size="11.00">_solution_of_smooth_data</text>
<text text-anchor="middle" x="388.13" y="-198.72" font-family="Helvetica,sans-Serif" font-weight="bold" font-size="11.00">5 files</text>
</g>
<!-- L14_15&#45;&gt;BranchA -->
<g id="edge22" class="edge">
<title>L14_15&#45;&gt;BranchA</title>
<path fill="none" stroke="#000000" stroke-width="1.5" stroke-dasharray="1,5" d="M366.89,-309.36C369.67,-298.51 372.8,-286.3 375.79,-274.66"/>
<polygon fill="#000000" stroke="#000000" stroke-width="1.5" points="378.55,-275.15 377.82,-266.71 373.12,-273.76 378.55,-275.15"/>
</g>
<!-- T3_Base -->
<g id="node12" class="node">
<title>T3_Base</title>
<path fill="#ce93d8" stroke="black" d="M207.13,-498.52C207.13,-498.52 39.13,-498.52 39.13,-498.52 33.13,-498.52 27.13,-492.52 27.13,-486.52 27.13,-486.52 27.13,-440.52 27.13,-440.52 27.13,-434.52 33.13,-428.52 39.13,-428.52 39.13,-428.52 207.13,-428.52 207.13,-428.52 213.13,-428.52 219.13,-434.52 219.13,-440.52 219.13,-440.52 219.13,-486.52 219.13,-486.52 219.13,-492.52 213.13,-498.52 207.13,-498.52"/>
<text text-anchor="middle" x="123.13" y="-478.72" font-family="Helvetica,sans-Serif" font-weight="bold" font-size="11.00">T³ Shared Base</text>
<text text-anchor="middle" x="123.13" y="-466.72" font-family="Helvetica,sans-Serif" font-weight="bold" font-size="11.00">T1&#45;T5</text>
<text text-anchor="middle" x="123.13" y="-454.72" font-family="Helvetica,sans-Serif" font-weight="bold" font-size="11.00">Smooth data → Package</text>
<text text-anchor="middle" x="123.13" y="-442.72" font-family="Helvetica,sans-Serif" font-weight="bold" font-size="11.00">5 files</text>
</g>
<!-- T3_PDE&#45;&gt;T3_Base -->
<g id="edge11" class="edge">
<title>T3_PDE&#45;&gt;T3_Base</title>
<path fill="none" stroke="#555555" stroke-width="1.5" d="M144.67,-817.31C140.11,-742.56 130.36,-582.91 125.7,-506.7"/>
<polygon fill="#555555" stroke="#555555" stroke-width="1.5" points="128.5,-506.53 125.22,-498.71 122.91,-506.87 128.5,-506.53"/>
</g>
<!-- R3_Base -->
<g id="node13" class="node">
<title>R3_Base</title>
<path fill="#f06292" stroke="black" d="M683.63,-492.52C683.63,-492.52 556.63,-492.52 556.63,-492.52 550.63,-492.52 544.63,-486.52 544.63,-480.52 544.63,-480.52 544.63,-446.52 544.63,-446.52 544.63,-440.52 550.63,-434.52 556.63,-434.52 556.63,-434.52 683.63,-434.52 683.63,-434.52 689.63,-434.52 695.63,-440.52 695.63,-446.52 695.63,-446.52 695.63,-480.52 695.63,-480.52 695.63,-486.52 689.63,-492.52 683.63,-492.52"/>
<text text-anchor="middle" x="620.13" y="-472.72" font-family="Helvetica,sans-Serif" font-weight="bold" font-size="11.00">R³ Shared Base</text>
<text text-anchor="middle" x="620.13" y="-460.72" font-family="Helvetica,sans-Serif" font-weight="bold" font-size="11.00">Solution Package</text>
<text text-anchor="middle" x="620.13" y="-448.72" font-family="Helvetica,sans-Serif" font-weight="bold" font-size="11.00">5 files</text>
</g>
<!-- R3_Realization&#45;&gt;R3_Base -->
<g id="edge15" class="edge">
<title>R3_Realization&#45;&gt;R3_Base</title>
<path fill="none" stroke="#555555" stroke-width="1.5" d="M658.76,-629.51C649.98,-592.03 636.99,-536.52 628.54,-500.43"/>
<polygon fill="#555555" stroke="#555555" stroke-width="1.5" points="631.25,-499.74 626.7,-492.59 625.8,-501.02 631.25,-499.74"/>
</g>
<!-- T3_Base&#45;&gt;BranchB -->
<g id="edge13" class="edge">
<title>T3_Base&#45;&gt;BranchB</title>
<path fill="none" stroke="#555555" stroke-width="1.5" d="M52.22,-428.39C36.18,-417.1 21.21,-402.87 12.13,-385.52 -4.77,-353.23 -3.02,-336.67 12.13,-303.52 17.4,-291.98 25.36,-281.51 34.38,-272.26"/>
<polygon fill="#555555" stroke="#555555" stroke-width="1.5" points="36.35,-274.25 40.12,-266.67 32.44,-270.24 36.35,-274.25"/>
</g>
<!-- T3_Base&#45;&gt;BranchD -->
<g id="edge14" class="edge">
<title>T3_Base&#45;&gt;BranchD</title>
<path fill="none" stroke="#555555" stroke-width="1.5" d="M125.76,-428.36C126.58,-417.62 127.51,-405.54 128.4,-393.99"/>
<polygon fill="#555555" stroke="#555555" stroke-width="1.5" points="131.21,-393.9 129.04,-385.71 125.63,-393.47 131.21,-393.9"/>
</g>
<!-- R3_Base&#45;&gt;BranchA -->
<g id="edge17" class="edge">
<title>R3_Base&#45;&gt;BranchA</title>
<path fill="none" stroke="#555555" stroke-width="1.5" d="M563.54,-434.39C542.24,-421.7 519.09,-405.13 502.13,-385.52 475.85,-355.15 487.02,-336.53 464.13,-303.52 456.68,-292.78 447.67,-282.2 438.49,-272.47"/>
<polygon fill="#555555" stroke="#555555" stroke-width="1.5" points="440.34,-270.35 432.77,-266.53 436.31,-274.24 440.34,-270.35"/>
</g>
<!-- R3_Base&#45;&gt;BranchC -->
<g id="edge18" class="edge">
<title>R3_Base&#45;&gt;BranchC</title>
<path fill="none" stroke="#555555" stroke-width="1.5" d="M620.13,-434.5C620.13,-422.29 620.13,-407.63 620.13,-393.76"/>
<polygon fill="#555555" stroke="#555555" stroke-width="1.5" points="622.93,-393.71 620.13,-385.71 617.33,-393.71 622.93,-393.71"/>
</g>
<!-- Millennium -->
<g id="node18" class="node">
<title>Millennium</title>
<path fill="#1a237e" stroke="black" stroke-width="3" d="M508.46,-52.86C508.46,-52.86 508.46,-80.66 508.46,-80.66 508.46,-86.66 502.75,-94.49 497.03,-96.32 497.03,-96.32 405.47,-125.64 405.47,-125.64 399.75,-127.47 388.04,-129.3 382.04,-129.3 382.04,-129.3 244.22,-129.3 244.22,-129.3 238.22,-129.3 226.5,-127.47 220.79,-125.64 220.79,-125.64 129.22,-96.32 129.22,-96.32 123.51,-94.49 117.79,-86.66 117.79,-80.66 117.79,-80.66 117.79,-52.86 117.79,-52.86 117.79,-46.86 123.51,-39.03 129.22,-37.2 129.22,-37.2 220.79,-7.88 220.79,-7.88 226.5,-6.05 238.22,-4.22 244.22,-4.22 244.22,-4.22 382.04,-4.22 382.04,-4.22 388.04,-4.22 399.75,-6.05 405.47,-7.88 405.47,-7.88 497.03,-37.2 497.03,-37.2 502.75,-39.03 508.46,-46.86 508.46,-52.86"/>
<path fill="none" stroke="black" stroke-width="3" d="M512.47,-49.95C512.47,-49.95 512.47,-83.57 512.47,-83.57 512.47,-89.57 506.75,-97.4 501.04,-99.23 501.04,-99.23 406.09,-129.62 406.09,-129.62 400.38,-131.45 388.67,-133.28 382.67,-133.28 382.67,-133.28 243.59,-133.28 243.59,-133.28 237.59,-133.28 225.88,-131.45 220.16,-129.62 220.16,-129.62 125.22,-99.23 125.22,-99.23 119.51,-97.4 113.79,-89.57 113.79,-83.57 113.79,-83.57 113.79,-49.95 113.79,-49.95 113.79,-43.95 119.51,-36.12 125.22,-34.29 125.22,-34.29 220.16,-3.9 220.16,-3.9 225.88,-2.07 237.59,-0.24 243.59,-0.24 243.59,-0.24 382.67,-0.24 382.67,-0.24 388.67,-0.24 400.38,-2.07 406.09,-3.9 406.09,-3.9 501.04,-34.29 501.04,-34.29 506.75,-36.12 512.47,-43.95 512.47,-49.95"/>
<text text-anchor="middle" x="313.13" y="-87.96" font-family="Helvetica,sans-Serif" font-weight="bold" font-size="11.00" fill="white">★ Four Named Theorems ★</text>
<text text-anchor="middle" x="313.13" y="-75.96" font-family="Helvetica,sans-Serif" font-weight="bold" font-size="11.00" fill="white">Clay (A)(B)(C)(D) all addressed</text>
<text text-anchor="middle" x="313.13" y="-63.96" font-family="Helvetica,sans-Serif" font-weight="bold" font-size="11.00" fill="white">Single assumption: ω₀ ∈ L²</text>
<text text-anchor="middle" x="313.13" y="-51.96" font-family="Helvetica,sans-Serif" font-weight="bold" font-size="11.00" fill="white">1007 statements, 0 sorry, 0 axiom</text>
<text text-anchor="middle" x="313.13" y="-39.96" font-family="Helvetica,sans-Serif" font-weight="bold" font-size="11.00" fill="white">159 files, 25,888 lines</text>
</g>
<!-- BranchB&#45;&gt;Millennium -->
<g id="edge25" class="edge">
<title>BranchB&#45;&gt;Millennium</title>
<path fill="none" stroke="#1a237e" stroke-width="2.5" d="M150.83,-184.17C164.42,-173.4 179.23,-161.87 193.13,-151.52 200.23,-146.23 207.62,-140.84 215.08,-135.45"/>
<polygon fill="#1a237e" stroke="#1a237e" stroke-width="2.5" points="217.09,-137.46 221.96,-130.52 213.83,-132.91 217.09,-137.46"/>
<text text-anchor="middle" x="208.63" y="-155.32" font-family="Times,serif" font-size="14.00"> &#160;(B)</text>
</g>
<!-- BranchD&#45;&gt;Millennium -->
<g id="edge27" class="edge">
<title>BranchD&#45;&gt;Millennium</title>
<path fill="none" stroke="#1a237e" stroke-width="2.5" d="M178.4,-303.25C189.65,-292.07 201.04,-279.44 210.13,-266.52 233.23,-233.66 229.9,-220.31 248.13,-184.52 255.46,-170.13 263.6,-154.93 271.59,-140.43"/>
<polygon fill="#1a237e" stroke="#1a237e" stroke-width="2.5" points="274.07,-141.73 275.49,-133.37 269.17,-139.02 274.07,-141.73"/>
<text text-anchor="middle" x="263.63" y="-221.82" font-family="Times,serif" font-size="14.00"> &#160;(D)</text>
</g>
<!-- BranchA&#45;&gt;Millennium -->
<g id="edge26" class="edge">
<title>BranchA&#45;&gt;Millennium</title>
<path fill="none" stroke="#1a237e" stroke-width="2.5" d="M368.81,-184.15C362.47,-170.9 355.22,-155.73 348.08,-140.82"/>
<polygon fill="#1a237e" stroke="#1a237e" stroke-width="2.5" points="350.58,-139.54 344.6,-133.53 345.52,-141.96 350.58,-139.54"/>
<text text-anchor="middle" x="374.13" y="-155.32" font-family="Times,serif" font-size="14.00"> &#160;(A)</text>
</g>
<!-- BranchC&#45;&gt;Millennium -->
<g id="edge28" class="edge">
<title>BranchC&#45;&gt;Millennium</title>
<path fill="none" stroke="#1a237e" stroke-width="2.5" d="M595.2,-303.43C572.65,-269.21 537.07,-220.05 498.13,-184.52 476.46,-164.75 451.02,-146.28 426.07,-130.12"/>
<polygon fill="#1a237e" stroke="#1a237e" stroke-width="2.5" points="427.3,-127.58 419.05,-125.63 424.28,-132.3 427.3,-127.58"/>
<text text-anchor="middle" x="584.63" y="-221.82" font-family="Times,serif" font-size="14.00"> &#160;(C)</text>
</g>
</g>
</svg>
